<?xml version="1.0" encoding="UTF-8"?>
<svg xmlns="http://www.w3.org/2000/svg" version="1.1" xmlns:cc="http://creativecommons.org/ns#" xmlns:dc="http://purl.org/dc/elements/1.1/" xmlns:inkscape="http://www.inkscape.org/namespaces/inkscape" xmlns:rdf="http://www.w3.org/1999/02/22-rdf-syntax-ns#" xmlns:sodipodi="http://sodipodi.sourceforge.net/DTD/sodipodi-0.dtd" xmlns:svg="http://www.w3.org/2000/svg" xmlns:xlink="http://www.w3.org/1999/xlink" viewBox="0 0 1087.6 442.9">
  <defs>
    <style>
      .cls-1 {
        clip-path: url(#clippath-21);
      }

      .cls-2 {
        clip-path: url(#clippath-6);
      }

      .cls-3 {
        clip-path: url(#clippath-7);
      }

      .cls-4 {
        clip-path: url(#clippath-17);
      }

      .cls-5 {
        clip-path: url(#clippath-15);
      }

      .cls-6 {
        clip-path: url(#clippath-18);
      }

      .cls-7 {
        clip-path: url(#clippath-4);
      }

      .cls-8 {
        clip-path: url(#clippath-22);
      }

      .cls-9 {
        clip-path: url(#clippath-23);
      }

      .cls-10, .cls-11, .cls-12, .cls-13, .cls-14, .cls-15, .cls-16 {
        stroke: #000;
      }

      .cls-10, .cls-11, .cls-12, .cls-13, .cls-17, .cls-15, .cls-16 {
        stroke-miterlimit: 4.3;
      }

      .cls-10, .cls-18, .cls-19, .cls-13, .cls-14, .cls-17 {
        fill: none;
      }

      .cls-10, .cls-12, .cls-16 {
        stroke-width: 2.1px;
      }

      .cls-11, .cls-13, .cls-17, .cls-15 {
        stroke-width: 1.1px;
      }

      .cls-20 {
        clip-path: url(#clippath-9);
      }

      .cls-21 {
        clip-path: url(#clippath-10);
      }

      .cls-22 {
        clip-path: url(#clippath-11);
      }

      .cls-23 {
        fill: red;
      }

      .cls-24 {
        clip-path: url(#clippath-1);
      }

      .cls-25, .cls-26, .cls-27 {
        isolation: isolate;
      }

      .cls-28 {
        clip-path: url(#clippath-5);
      }

      .cls-29 {
        clip-path: url(#clippath-20);
      }

      .cls-30 {
        clip-path: url(#clippath-8);
      }

      .cls-31 {
        clip-path: url(#clippath-3);
      }

      .cls-18, .cls-14 {
        stroke-miterlimit: 8;
        stroke-width: 1.5px;
      }

      .cls-18, .cls-17 {
        stroke: red;
      }

      .cls-32 {
        clip-path: url(#clippath-12);
      }

      .cls-33 {
        clip-path: url(#clippath-14);
      }

      .cls-19 {
        clip-rule: evenodd;
      }

      .cls-12 {
        stroke-dasharray: 21.3 10.7;
      }

      .cls-34 {
        clip-path: url(#clippath-19);
      }

      .cls-26 {
        font-family: TimesNewRomanPSMT, 'Times New Roman';
      }

      .cls-26, .cls-27 {
        font-size: 26.7px;
      }

      .cls-35 {
        fill-rule: evenodd;
      }

      .cls-36 {
        clip-path: url(#clippath-16);
      }

      .cls-37 {
        clip-path: url(#clippath-2);
      }

      .cls-38 {
        clip-path: url(#clippath-13);
      }

      .cls-27 {
        font-family: TimesNewRomanPS-ItalicMT, 'Times New Roman';
        font-style: italic;
      }

      .cls-15 {
        stroke-dasharray: 10.7 10.7;
      }

      .cls-39 {
        clip-path: url(#clippath-24);
      }

      .cls-40 {
        clip-path: url(#clippath);
      }
    </style>
    <clipPath id="clippath">
      <polygon class="cls-19" points="0 433.8 567 433.8 567 0 0 0 0 433.8 0 433.8"/>
    </clipPath>
    <clipPath id="clippath-1">
      <polygon class="cls-19" points="0 433.8 567 433.8 567 0 0 0 0 433.8 0 433.8"/>
    </clipPath>
    <clipPath id="clippath-2">
      <polygon class="cls-19" points="0 433.8 567 433.8 567 0 0 0 0 433.8 0 433.8"/>
    </clipPath>
    <clipPath id="clippath-3">
      <polygon class="cls-19" points="0 433.8 567 433.8 567 0 0 0 0 433.8 0 433.8"/>
    </clipPath>
    <clipPath id="clippath-4">
      <polygon class="cls-19" points="0 433.8 567 433.8 567 0 0 0 0 433.8 0 433.8"/>
    </clipPath>
    <clipPath id="clippath-5">
      <polygon class="cls-19" points="0 433.8 567 433.8 567 0 0 0 0 433.8 0 433.8"/>
    </clipPath>
    <clipPath id="clippath-6">
      <polygon class="cls-19" points="0 433.8 567 433.8 567 0 0 0 0 433.8 0 433.8"/>
    </clipPath>
    <clipPath id="clippath-7">
      <polygon class="cls-19" points="0 433.8 567 433.8 567 0 0 0 0 433.8 0 433.8"/>
    </clipPath>
    <clipPath id="clippath-8">
      <polygon class="cls-19" points="0 433.8 567 433.8 567 0 0 0 0 433.8 0 433.8"/>
    </clipPath>
    <clipPath id="clippath-9">
      <polygon class="cls-19" points="0 433.8 567 433.8 567 0 0 0 0 433.8 0 433.8"/>
    </clipPath>
    <clipPath id="clippath-10">
      <polygon class="cls-19" points="0 433.8 567 433.8 567 0 0 0 0 433.8 0 433.8"/>
    </clipPath>
    <clipPath id="clippath-11">
      <polygon class="cls-19" points="0 433.8 567 433.8 567 0 0 0 0 433.8 0 433.8"/>
    </clipPath>
    <clipPath id="clippath-12">
      <polygon class="cls-19" points="0 433.8 567 433.8 567 0 0 0 0 433.8 0 433.8"/>
    </clipPath>
    <clipPath id="clippath-13">
      <polygon class="cls-19" points="0 433.8 567 433.8 567 0 0 0 0 433.8 0 433.8"/>
    </clipPath>
    <clipPath id="clippath-14">
      <polygon class="cls-19" points="0 433.8 567 433.8 567 0 0 0 0 433.8 0 433.8"/>
    </clipPath>
    <clipPath id="clippath-15">
      <polygon class="cls-19" points="0 433.8 567 433.8 567 0 0 0 0 433.8 0 433.8"/>
    </clipPath>
    <clipPath id="clippath-16">
      <polygon class="cls-19" points="0 433.8 567 433.8 567 0 0 0 0 433.8 0 433.8"/>
    </clipPath>
    <clipPath id="clippath-17">
      <polygon class="cls-19" points="0 433.8 567 433.8 567 0 0 0 0 433.8 0 433.8"/>
    </clipPath>
    <clipPath id="clippath-18">
      <polygon class="cls-19" points="0 433.8 567 433.8 567 0 0 0 0 433.8 0 433.8"/>
    </clipPath>
    <clipPath id="clippath-19">
      <polygon class="cls-19" points="0 433.8 567 433.8 567 0 0 0 0 433.8 0 433.8"/>
    </clipPath>
    <clipPath id="clippath-20">
      <polygon class="cls-19" points="0 433.8 567 433.8 567 0 0 0 0 433.8 0 433.8"/>
    </clipPath>
    <clipPath id="clippath-21">
      <polygon class="cls-19" points="0 433.8 567 433.8 567 0 0 0 0 433.8 0 433.8"/>
    </clipPath>
    <clipPath id="clippath-22">
      <polygon class="cls-19" points="0 433.8 567 433.8 567 0 0 0 0 433.8 0 433.8"/>
    </clipPath>
    <clipPath id="clippath-23">
      <polygon class="cls-19" points="0 433.8 567 433.8 567 0 0 0 0 433.8 0 433.8"/>
    </clipPath>
    <clipPath id="clippath-24">
      <polygon class="cls-19" points="0 433.8 567 433.8 567 0 0 0 0 433.8 0 433.8"/>
    </clipPath>
  </defs>
  <!-- Generator: Adobe Illustrator 28.7.1, SVG Export Plug-In . SVG Version: 1.2.0 Build 142)  -->
  <g>
    <g id="_图层_1" data-name="图层_1">
      <g id="svg2" inkscape:output_extension="org.inkscape.output.svg.inkscape" inkscape:version="0.92.1 r15371" sodipodi:docname="Hyperbolic_functions-2.svg">
        <sodipodi:namedview id="base" bordercolor="#666666" borderopacity="1.0" gridtolerance="10.0" guidetolerance="10.0" inkscape:current-layer="svg2" inkscape:cx="260" inkscape:cy="171.7647" inkscape:pageopacity="0.0" inkscape:pageshadow="2" inkscape:window-height="900" inkscape:window-maximized="0" inkscape:window-width="1006" inkscape:window-x="148" inkscape:window-y="11" inkscape:zoom="1.0461538" objecttolerance="10.0" pagecolor="#ffffff" showgrid="false"/>
        <g id="_x3C_defs">
          <inkscape:perspective id="perspective48" inkscape:persp3d-origin="259.99999 : 140 : 1" inkscape:vp_x="0 : 210 : 1" inkscape:vp_y="0 : 1000 : 0" inkscape:vp_z="519.99998 : 210 : 1" sodipodi:type="inkscape:persp3d"/>
        </g>
        <g id="g6275">
          <path id="path7" class="cls-11" d="M652.2,228.8h426.7M1057.6,218.2l21.3,10.7-21.3,10.7M865.6,15.5v426.7M854.9,36.8l10.7-21.3,10.7,21.3" inkscape:connector-curvature="0"/>
          <path id="path9" class="cls-12" d="M652.2,15.5l426.7,426.7M1078.9,15.5l-426.7,426.7" inkscape:connector-curvature="0"/>
          <path id="path11" class="cls-15" d="M758.9,228.8v106.7" inkscape:connector-curvature="0"/>
          <path id="path13" d="M1016.4,228.8v106.7" inkscape:connector-curvature="0"/>
          <path id="path17" class="cls-10" d="M714.7,335.5c8.5-12.1,44.2-59.7,44.2-106.7s-35.6-94.6-44.2-106.7" inkscape:connector-curvature="0"/>
          <g id="use19">
            <path id="p2" class="cls-16" d="M1016.4,335.5c8.5,12.1,25.5,35.4,62.5,78.1" inkscape:connector-curvature="0"/>
          </g>
          <g id="use21">
            <path id="p2-2" class="cls-16" d="M714.7,335.5c-8.5,12.1-25.5,35.4-62.5,78.1" inkscape:connector-curvature="0"/>
          </g>
          <g id="use23">
            <path id="p2-3" class="cls-16" d="M1016.4,122.2c8.5-12.1,25.5-35.4,62.5-78.1" inkscape:connector-curvature="0"/>
          </g>
          <g id="use25">
            <path id="p2-4" class="cls-16" d="M714.7,122.2c-8.5-12.1-25.5-35.4-62.5-78.1" inkscape:connector-curvature="0"/>
          </g>
          <path id="path27" class="cls-17" d="M1016.4,228.8v-106.7h-150.8" inkscape:connector-curvature="0"/>
          <g id="text29" class="cls-25">
            <text class="cls-26" transform="translate(790.9 225.6)"><tspan x="0" y="0">1</tspan></text>
          </g>
          <g id="text31" class="cls-25">
            <text class="cls-26" transform="translate(764.2 284.3)"><tspan x="0" y="0">1</tspan></text>
          </g>
          <g id="text33" class="cls-25">
            <text class="cls-27" transform="translate(1057.6 271.5)"><tspan x="0" y="0">X</tspan></text>
          </g>
          <g id="text35" class="cls-25">
            <text class="cls-27" transform="translate(822.9 36.8)"><tspan x="0" y="0">Y</tspan></text>
          </g>
          <g id="text37" class="cls-25">
            <text class="cls-26" transform="translate(886.9 114.7)"><tspan x="0" y="0">cosh</tspan></text>
          </g>
          <g id="text39" class="cls-25">
            <text class="cls-26" transform="translate(1025.6 186.2)"><tspan x="0" y="0">sinh</tspan></text>
          </g>
          <g id="text43" class="cls-25">
            <text class="cls-27" transform="translate(598.9 164.8)"><tspan x="0" y="0">x² – y² =</tspan></text>
          </g>
          <g id="text6244" class="cls-25">
            <text class="cls-26" transform="translate(694.9 164.8)"><tspan x="0" y="0">1</tspan></text>
          </g>
          <path id="path2421" class="cls-10" d="M1016.1,335.2c-8.5-12.1-44.2-59.7-44.2-106.7s35.6-94.6,44.2-106.7" inkscape:connector-curvature="0"/>
          <path id="path2423" class="cls-13" d="M865.6,229.5l150.9-107.1" inkscape:connector-curvature="0" sodipodi:nodetypes="cc"/>
          <path id="path2459" class="cls-23" d="M869.7,227.9c2.3-2,137.6-97.5,138.1-97.5s-.7,2-2.4,4.3c-19.8,28.9-34.9,67.4-34.9,89.1v4.5h-50.6c-27.9,0-50.4-.2-50.2-.4h0Z" inkscape:connector-curvature="0"/>
          <g id="text41" class="cls-25">
            <text class="cls-27" transform="translate(939.4 214.3)"><tspan x="0" y="0">/2</tspan></text>
          </g>
          <g class="cls-25">
            <text class="cls-27" transform="translate(938.6 113.2)"><tspan x="0" y="0">ϕ</tspan></text>
          </g>
          <g class="cls-25">
            <text class="cls-27" transform="translate(1073.8 184.7)"><tspan x="0" y="0">ϕ</tspan></text>
          </g>
          <g class="cls-25">
            <text class="cls-27" transform="translate(924.9 211.2)"><tspan x="0" y="0">ϕ</tspan></text>
          </g>
        </g>
      </g>
      <g>
        <line class="cls-14" x1="81.1" y1="252.6" x2="515.8" y2="252.6"/>
        <polygon class="cls-35" points="513.7 246.6 525.9 252.6 513.7 258.7 513.7 246.6 513.7 246.6"/>
        <g class="cls-40">
          <line class="cls-14" x1="281.3" y1="433.8" x2="281.3" y2="49.1"/>
          <polygon class="cls-35" points="287.4 51.2 281.3 39 275.2 51.2 287.4 51.2 287.4 51.2"/>
          <g class="cls-24">
            <path class="cls-14" d="M162.7,252.6c0-65.5,53.1-118.6,118.6-118.6s118.6,53.1,118.6,118.6-53.1,118.6-118.6,118.6-118.6-53.1-118.6-118.6h0Z"/>
            <g class="cls-37">
              <line class="cls-18" x1="281.3" y1="252.6" x2="365.2" y2="168.8"/>
              <g class="cls-31">
                <line class="cls-18" x1="281.3" y1="252.6" x2="394.4" y2="252.6"/>
                <g class="cls-7">
                  <line class="cls-18" x1="299.8" y1="234.9" x2="311.1" y2="249.7"/>
                  <g class="cls-28">
                    <line class="cls-18" x1="311" y1="224.4" x2="334" y2="252.5"/>
                    <g class="cls-2">
                      <line class="cls-18" x1="320.7" y1="213" x2="354.6" y2="252"/>
                      <g class="cls-3">
                        <line class="cls-18" x1="332.3" y1="204.5" x2="374.3" y2="252.7"/>
                        <g class="cls-30">
                          <line class="cls-18" x1="342.8" y1="192.8" x2="394.3" y2="252.5"/>
                          <g class="cls-20">
                            <line class="cls-18" x1="351.5" y1="180.7" x2="395.7" y2="232.6"/>
                            <g class="cls-21">
                              <line class="cls-18" x1="360.5" y1="175.8" x2="388.7" y2="207.6"/>
                              <g class="cls-22">
                                <path class="cls-35" d="M348.7,208.9c-.2.9-.3,1.7-.4,2.5,0,.8-.1,1.5-.1,2.2,0,1,.2,1.8.5,2.2.3.5.8.7,1.5.7s1.1-.2,1.6-.5c.5-.3,1-.8,1.4-1.5s.9-1.4,1.3-2.4c.4-.9.7-2,1-3.3h-6.7ZM354.3,199.8c-1.1,0-2.1.6-3,1.9-.9,1.3-1.7,3.1-2.3,5.6h6.7c.2-.9.3-1.7.4-2.5s.1-1.5.1-2.2c0-1-.2-1.7-.5-2.2-.3-.5-.8-.7-1.5-.7h0ZM354.4,198.5c2.8,0,4.2,1.8,4.2,5.4s-.1,2.2-.3,3.4c-.2,1.2-.5,2.4-1,3.6-.4,1.1-.8,2-1.3,2.9s-1.1,1.6-1.7,2.2-1.3,1.1-2,1.4c-.7.3-1.5.5-2.3.5-2.8,0-4.3-1.8-4.3-5.3s0-2.2.3-3.4c.2-1.2.5-2.4.9-3.6.4-1.1.8-2,1.4-2.9.5-.9,1.1-1.6,1.8-2.2.6-.6,1.3-1.1,2.1-1.4.7-.3,1.5-.5,2.3-.5h0Z"/>
                                <g class="cls-32">
                                  <path class="cls-35" d="M352.5,229.5c.9,0,1.7.1,2.3.3.6.2,1.2.5,1.6.8.4.3.7.8.9,1.3.2.5.3,1,.3,1.6s0,.7,0,.9-.1.6-.2.9c-.1.3-.3.6-.5.9-.2.3-.4.6-.7.9-.2.3-.5.6-.8,1-.3.4-.7.8-1.1,1.2-.4.4-.8.9-1.3,1.3-.5.5-.9.9-1.3,1.3-.4.4-.8.9-1.2,1.3-.4.4-.6.8-.9,1.1h4.8c.4,0,.7,0,1,0,.2,0,.4,0,.6-.2.2-.1.3-.3.4-.5.1-.2.2-.5.4-.9h1.2c0,.6,0,1.2-.1,1.9,0,.6,0,1.2-.1,1.9h-11.1v-.7c.2-.5.5-.9.7-1.4s.6-.9.9-1.4.7-1,1.2-1.5.9-1,1.5-1.6c.8-.8,1.5-1.5,2-2.1.5-.6.9-1.1,1.2-1.5.3-.5.5-.9.6-1.3s.2-.8.2-1.2,0-.9-.2-1.2c-.1-.4-.3-.7-.5-1s-.5-.5-.9-.6c-.4-.1-.8-.2-1.2-.2-.8,0-1.5.2-2,.7-.5.4-1,1.1-1.3,1.9h-1.7v-2.5c1.1-.5,2.1-.8,3.1-1s1.8-.3,2.5-.3h0Z"/>
                                  <g class="cls-38">
                                    <polygon class="cls-35" points="343.7 224.5 349.6 224.5 355.5 224.5 361.4 224.5 361.4 226.2 355.5 226.2 349.6 226.2 343.7 226.2 343.7 224.5 343.7 224.5"/>
                                    <g class="cls-33">
                                      <path class="cls-35" d="M24.7,154.4c.3,0,.5,0,.8,0,.2,0,.4.2.6.3.2.1.3.3.4.5s.3.5.4.9c.1.4.2.8.3,1.4.1.5.2,1.1.3,1.7h.1c.9-1.2,1.6-2.2,2-2.7.5-.6.8-1,1.2-1.3.3-.3.6-.5.9-.6s.7-.2,1.2-.2.8,0,1.1.2l-.6,2.5h-1c0-.4-.2-.6-.5-.6s-.2,0-.3,0c0,0-.2,0-.3.2-.1,0-.3.3-.6.5-.3.3-.6.6-.9,1-.3.4-.7.8-1,1.2l-.9,1.2c.2.9.3,1.7.5,2.3.1.6.3,1.2.4,1.6s.2.8.3,1c0,.2.2.4.3.6.1.1.2.2.3.3.1,0,.2,0,.4,0,.2,0,.5,0,.7-.3.2-.2.6-.6,1-1.3l.9.6c-.6,1-1.2,1.6-1.8,2s-1.1.6-1.9.6-.7,0-1-.2c-.3-.1-.5-.4-.7-.7-.2-.3-.4-.8-.5-1.5-.3-1.2-.5-2.1-.5-2.7h-.1c-1,1.4-1.7,2.4-2.2,3-.5.6-.9,1-1.2,1.3-.3.3-.6.5-.9.6-.3.1-.7.2-1.2.2s-.8,0-1.1-.2l.6-2.5h1c0,.4.2.6.5.6s.3,0,.4-.1.3-.2.6-.5c.3-.3.6-.7,1.1-1.2s1.2-1.4,2.1-2.5c-.1-.7-.3-1.4-.4-2.1s-.3-1.3-.5-1.9c-.2-.6-.3-1-.4-1.1-.1-.2-.2-.3-.3-.4s-.3-.1-.4-.1-.4,0-.5.1c-.2,0-.3.2-.5.5-.2.2-.4.6-.7,1l-.9-.6c.6-.9,1.1-1.5,1.7-2,.5-.4,1.2-.7,1.9-.7h0Z"/>
                                      <g class="cls-5">
                                        <path class="cls-35" d="M42,144.4c.7,0,1.3,0,1.8.2.5.2.9.4,1.2.6s.5.6.7,1c.1.4.2.8.2,1.2s0,.5,0,.7c0,.2-.1.4-.2.7s-.2.4-.4.7c-.1.2-.3.5-.6.7-.2.2-.4.5-.7.7-.3.3-.6.6-.9.9-.3.3-.7.7-1,1-.3.3-.7.7-1,1-.3.3-.6.7-.9,1-.3.3-.5.6-.7.9h3.7c.3,0,.6,0,.8,0,.2,0,.3,0,.5-.2.1,0,.2-.2.3-.4,0-.2.2-.4.3-.7h.9c0,.5,0,1,0,1.4,0,.5,0,1,0,1.4h-8.5v-.5c.2-.4.3-.7.6-1.1.2-.4.5-.7.7-1.1s.6-.7.9-1.1.7-.8,1.1-1.2c.6-.6,1.1-1.2,1.5-1.6s.7-.8.9-1.2.4-.7.5-1,.1-.6.1-.9,0-.7-.1-.9c0-.3-.2-.5-.4-.7-.2-.2-.4-.4-.7-.5-.3-.1-.6-.2-1-.2-.6,0-1.1.2-1.6.5-.4.3-.8.8-1,1.5h-1.3v-2c.9-.4,1.7-.6,2.4-.8s1.4-.2,2-.2h0Z"/>
                                        <g class="cls-36">
                                          <polygon class="cls-35" points="65.1 150.9 67 150.9 67 158.9 74.6 158.9 74.6 160.7 67 160.7 67 168.7 65.1 168.7 65.1 160.7 57.5 160.7 57.5 158.9 65.1 158.9 65.1 150.9 65.1 150.9"/>
                                          <g class="cls-4">
                                            <path class="cls-35" d="M87.5,154.4c.4,0,.7,0,1,.2.2,0,.4.2.6.4.2.2.3.4.5.7.1.3.3.6.4,1s.2.9.4,1.6c.2,1.2.4,2.5.6,3.8.2,1.3.4,2.5.5,3.7.9-1.3,1.7-2.6,2.3-3.8.6-1.2,1.1-2.3,1.3-3.2.3-.9.4-1.7.4-2.2s0-.7-.3-.9c-.2-.2-.5-.2-.9-.3v-.7h3.8l.4.7c-.7,1.9-1.7,4-2.9,6.2-1.2,2.1-2.5,4.3-4.1,6.4-1.5,2-2.7,3.5-3.7,4.4-.7.6-1.3,1.1-2,1.3-.5.2-1,.3-1.6.3s-.4,0-.7,0c-.3,0-.5,0-.6-.1l.6-2.7h1.1c0,.6.2.9.6.9s1.2-.3,1.9-1c.7-.7,1.6-1.7,2.5-3-.3-1.6-.6-3.6-1.1-5.9-.5-2.4-.8-4-1-4.5-.2-.7-.4-1.2-.6-1.3-.1-.1-.3-.2-.5-.2-.3,0-.6.1-.8.4s-.6.7-1,1.2l-.9-.6c.6-1,1.2-1.6,1.8-2,.6-.4,1.2-.6,1.9-.6h0Z"/>
                                            <g class="cls-6">
                                              <path class="cls-35" d="M106.2,144.4c.7,0,1.3,0,1.8.2.5.2.9.4,1.2.6.3.3.5.6.7,1,.1.4.2.8.2,1.2s0,.5,0,.7-.1.4-.2.7c0,.2-.2.4-.4.7-.1.2-.3.5-.6.7-.2.2-.4.5-.7.7-.3.3-.6.6-.9.9-.3.3-.7.7-1,1-.3.3-.7.7-1,1-.3.3-.6.7-.9,1-.3.3-.5.6-.7.9h3.7c.3,0,.6,0,.8,0,.2,0,.3,0,.5-.2.1,0,.2-.2.3-.4,0-.2.2-.4.3-.7h.9c0,.5,0,1,0,1.4,0,.5,0,1,0,1.4h-8.5v-.5c.2-.4.3-.7.6-1.1s.5-.7.7-1.1.6-.7.9-1.1.7-.8,1.1-1.2c.6-.6,1.1-1.2,1.5-1.6.4-.4.7-.8.9-1.2.2-.3.4-.7.5-1s.1-.6.1-.9,0-.7-.1-.9c0-.3-.2-.5-.4-.7s-.4-.4-.7-.5c-.3-.1-.6-.2-1-.2-.6,0-1.1.2-1.6.5-.4.3-.8.8-1,1.5h-1.3v-2c.9-.4,1.7-.6,2.4-.8s1.4-.2,2-.2h0Z"/>
                                              <g class="cls-34">
                                                <path class="cls-35" d="M123.3,161.8h17.1v1.8h-17.1v-1.8h0ZM123.3,156h17.1v1.8h-17.1v-1.8h0Z"/>
                                                <g class="cls-29">
                                                  <path class="cls-35" d="M159.4,148.7h.8c0,.9,0,2.1,0,3.7v11.9c0,.5,0,.9,0,1.2,0,.3.2.5.3.7s.4.3.7.4c.3,0,.6.2,1.1.2s1,0,1.7.1v1h-10.3v-1c1,0,1.8-.1,2.2-.2.4,0,.8-.2,1-.4.2-.2.4-.4.5-.7.1-.3.2-.8.2-1.4v-11.3c0-.4,0-.6-.2-.8s-.3-.3-.6-.3-.7.2-1.3.5c-.5.3-1.2.7-2,1.3l-.6-1.1,6.5-3.9h0Z"/>
                                                  <g class="cls-1">
                                                    <path class="cls-35" d="M533.5,262.7c.4,0,.7,0,1,.1s.5.2.7.4.4.4.6.7.3.6.5,1.1.3,1.1.4,1.7.3,1.4.4,2.2h.2c1.1-1.6,2-2.8,2.6-3.5s1.1-1.3,1.5-1.7.8-.6,1.2-.8.9-.2,1.5-.2,1,0,1.4.2l-.7,3.2h-1.2c0-.5-.3-.7-.6-.7s-.2,0-.3,0-.3.1-.4.2-.4.4-.8.7-.7.8-1.1,1.3-.8,1-1.3,1.6l-1.2,1.5c.2,1.1.4,2.1.6,3s.4,1.5.5,2.1.3,1,.4,1.3.2.6.4.7.3.3.4.3.3,0,.5,0c.3,0,.6-.1.9-.4s.7-.8,1.3-1.7l1.2.8c-.8,1.2-1.6,2.1-2.3,2.6s-1.5.8-2.4.8-.9,0-1.3-.3-.7-.5-.9-.9-.5-1-.7-1.9c-.4-1.5-.6-2.7-.7-3.5h-.2c-1.3,1.8-2.2,3-2.8,3.8s-1.1,1.3-1.5,1.7-.8.6-1.2.8-.9.2-1.5.2-1,0-1.4-.2l.7-3.2h1.2c0,.5.3.7.6.7s.3,0,.5-.1.4-.3.8-.6.8-.9,1.4-1.6,1.5-1.8,2.6-3.3c-.2-.9-.4-1.8-.6-2.7s-.4-1.7-.6-2.4-.4-1.2-.5-1.5-.3-.4-.4-.5-.3-.1-.6-.1-.5,0-.7.2-.4.3-.7.6-.6.7-.9,1.3l-1.2-.8c.7-1.1,1.5-2,2.2-2.5s1.5-.8,2.4-.8h0Z"/>
                                                    <g class="cls-8">
                                                      <path class="cls-35" d="M298.4,24.2c.5,0,.9,0,1.2.2.2,0,.5.3.7.5s.4.5.6.9.3.8.5,1.3.3,1.2.5,2.1c.3,1.5.6,3.1.8,4.8s.5,3.3.7,4.7c1.2-1.7,2.1-3.3,2.9-4.9s1.4-3,1.7-4.1.5-2.1.5-2.9-.1-.9-.4-1.1-.6-.3-1.2-.4l.2-.9h4.7l.5.9c-.9,2.5-2.1,5.1-3.7,7.9-1.5,2.8-3.3,5.5-5.2,8.2-1.9,2.6-3.4,4.5-4.7,5.6-.9.8-1.7,1.4-2.5,1.7-.6.3-1.3.4-2,.4s-.5,0-.9,0-.6,0-.8-.2l.8-3.5h1.4c0,.8.3,1.1.8,1.1s1.5-.4,2.4-1.3,2-2.2,3.2-3.9c-.3-2.1-.8-4.6-1.4-7.5-.6-3.1-1-5.1-1.2-5.8-.2-.9-.5-1.5-.8-1.7-.2-.2-.4-.2-.6-.2-.4,0-.7.2-1.1.5s-.7.8-1.2,1.6l-1.2-.8c.8-1.2,1.6-2.1,2.3-2.6s1.5-.8,2.4-.8h0Z"/>
                                                      <g class="cls-9">
                                                        <path class="cls-35" d="M295.5,107.7h.8c0,.9,0,2.1,0,3.7v11.9c0,.5,0,.9,0,1.2,0,.3.2.5.3.7s.4.3.7.4c.3,0,.6.2,1.1.2s1,0,1.7.1v1h-10.3v-1c1,0,1.8-.1,2.2-.2.4,0,.8-.2,1-.4.2-.2.4-.4.5-.7.1-.3.2-.8.2-1.4v-11.3c0-.4,0-.6-.2-.8s-.3-.3-.6-.3-.7.2-1.3.5c-.5.3-1.2.7-2,1.3l-.6-1.1,6.5-3.9h0Z"/>
                                                        <g class="cls-39">
                                                          <path class="cls-35" d="M414.4,263.3h.8c0,.9,0,2.1,0,3.7v11.9c0,.5,0,.9,0,1.2,0,.3.2.5.3.7s.4.3.7.4c.3,0,.6.2,1.1.2s1,0,1.7.1v1h-10.3v-1c1,0,1.8-.1,2.2-.2.4,0,.8-.2,1-.4.2-.2.4-.4.5-.7.1-.3.2-.8.2-1.4v-11.3c0-.4,0-.6-.2-.8s-.3-.3-.6-.3-.7.2-1.3.5c-.5.3-1.2.7-2,1.3l-.6-1.1,6.5-3.9h0Z"/>
                                                        </g>
                                                      </g>
                                                    </g>
                                                  </g>
                                                </g>
                                              </g>
                                            </g>
                                          </g>
                                        </g>
                                      </g>
                                    </g>
                                  </g>
                                </g>
                              </g>
                            </g>
                          </g>
                        </g>
                      </g>
                    </g>
                  </g>
                </g>
              </g>
            </g>
          </g>
        </g>
      </g>
    </g>
  </g>
</svg>