<svg width="964" height="917" xmlns="http://www.w3.org/2000/svg" xmlns:xlink="http://www.w3.org/1999/xlink" xml:space="preserve" overflow="hidden"><g transform="translate(-1749 -500)"><path d="M1773 1305.85 2661.74 1305.85 2661.74 1308.15 1773 1308.15ZM2657.15 1293.25 2684.65 1307 2657.15 1320.75Z"/><path d="M1.14583-4.69912e-07 1.14618 857.085-1.14548 857.085-1.14583 4.69912e-07ZM13.7503 852.5 0.000360892 880-13.7497 852.5Z" transform="matrix(1 0 0 -1 1883 1417)"/><path d="M1820.5 554.108C1824.09 554.108 1827.4 554.513 1830.43 555.323L1828.44 564.483 1824.19 564.483C1824.13 562.429 1823.96 560.943 1823.68 560.025 1823.4 559.106 1822.94 558.417 1822.3 557.958 1821.67 557.498 1820.77 557.269 1819.61 557.269 1816.88 557.269 1814.43 558.356 1812.25 560.531 1810.08 562.706 1808.3 565.786 1806.92 569.771 1805.55 573.757 1804.86 577.586 1804.86 581.261 1804.86 584.017 1805.4 586.063 1806.48 587.401 1807.56 588.738 1809.18 589.407 1811.34 589.407 1813.8 589.407 1815.93 588.941 1817.72 588.009 1819.52 587.077 1821.42 585.611 1823.42 583.611L1825.89 586.084C1823.35 588.893 1820.79 590.947 1818.21 592.244 1815.63 593.541 1812.85 594.189 1809.88 594.189 1805.96 594.189 1802.99 593.027 1800.97 590.704 1798.94 588.38 1797.93 585.003 1797.93 580.572 1797.93 577.681 1798.47 574.506 1799.55 571.048 1800.63 567.59 1802.21 564.55 1804.29 561.929 1806.37 559.309 1808.8 557.35 1811.58 556.053 1814.37 554.756 1817.34 554.108 1820.5 554.108ZM1847.52 544.746 1853.11 544.746 1850.88 554.756 1863.2 554.756 1862.31 558.849 1849.99 558.849 1846.38 574.574C1845.68 577.627 1845.23 579.822 1845.04 581.16 1844.86 582.497 1844.76 583.571 1844.76 584.381 1844.76 587.732 1846.15 589.407 1848.94 589.407 1850.12 589.407 1851.39 588.954 1852.72 588.049 1854.06 587.144 1855.65 585.597 1857.49 583.409L1859.84 585.84C1857.49 588.677 1855.22 590.771 1853.05 592.122 1850.87 593.473 1848.6 594.149 1846.22 594.149 1840.57 594.149 1837.75 591.298 1837.75 585.597 1837.75 583.787 1837.98 581.882 1838.44 579.883L1843.22 558.849 1836.41 558.849 1837.02 556.053C1838.61 556.026 1839.82 555.904 1840.65 555.688 1841.47 555.472 1842.16 555.175 1842.71 554.797 1843.27 554.418 1843.77 553.878 1844.23 553.175 1844.69 552.473 1845.14 551.575 1845.57 550.48 1846 549.386 1846.65 547.475 1847.52 544.746Z" fill-rule="evenodd"/><text fill="#000000" fill-opacity="0" font-family="Arial,Arial_MSFontService,sans-serif" font-size="49.4434" x="1797.93" y="588.009">𝑐𝑡</text><path d="M2609.36 1337.44C2610.2 1337.44 2610.94 1337.54 2611.57 1337.73 2612.21 1337.92 2612.77 1338.21 2613.25 1338.6 2613.74 1338.99 2614.17 1339.5 2614.55 1340.12 2614.93 1340.74 2615.29 1341.58 2615.65 1342.65 2616 1343.72 2616.33 1345.04 2616.64 1346.62 2616.95 1348.2 2617.23 1349.85 2617.47 1351.55L2617.87 1351.55C2620.47 1347.9 2622.43 1345.23 2623.77 1343.54 2625.11 1341.85 2626.24 1340.6 2627.15 1339.77 2628.07 1338.95 2628.96 1338.37 2629.81 1338.03 2630.66 1337.69 2631.79 1337.53 2633.19 1337.53 2634.46 1337.53 2635.5 1337.69 2636.31 1338.01L2634.69 1345.35 2631.86 1345.35C2631.69 1344.21 2631.22 1343.64 2630.44 1343.64 2630.19 1343.64 2629.94 1343.69 2629.67 1343.77 2629.4 1343.85 2629.07 1344.02 2628.67 1344.29 2628.28 1344.56 2627.71 1345.09 2626.95 1345.87 2626.2 1346.66 2625.34 1347.62 2624.4 1348.75 2623.45 1349.89 2622.48 1351.07 2621.48 1352.32L2618.73 1355.76C2619.21 1358.36 2619.67 1360.6 2620.1 1362.49 2620.54 1364.38 2620.92 1365.96 2621.26 1367.21 2621.6 1368.47 2621.89 1369.46 2622.15 1370.19 2622.41 1370.92 2622.68 1371.47 2622.98 1371.83 2623.28 1372.2 2623.58 1372.45 2623.89 1372.6 2624.2 1372.75 2624.56 1372.82 2624.97 1372.82 2625.7 1372.82 2626.41 1372.54 2627.09 1371.97 2627.78 1371.41 2628.78 1370.12 2630.07 1368.12L2632.71 1369.87C2630.82 1372.68 2629.11 1374.66 2627.58 1375.8 2626.05 1376.95 2624.24 1377.53 2622.13 1377.53 2620.97 1377.53 2619.98 1377.32 2619.17 1376.9 2618.36 1376.48 2617.66 1375.81 2617.06 1374.89 2616.47 1373.97 2615.94 1372.54 2615.48 1370.6 2614.65 1367.14 2614.13 1364.49 2613.94 1362.65L2613.54 1362.65C2610.67 1366.68 2608.55 1369.57 2607.15 1371.33 2605.76 1373.08 2604.61 1374.38 2603.71 1375.22 2602.8 1376.05 2601.93 1376.64 2601.08 1376.98 2600.22 1377.32 2599.1 1377.49 2597.69 1377.49 2596.42 1377.49 2595.38 1377.32 2594.57 1377L2596.19 1369.66 2599.03 1369.66C2599.19 1370.8 2599.66 1371.37 2600.45 1371.37 2600.83 1371.37 2601.22 1371.26 2601.64 1371.06 2602.06 1370.86 2602.66 1370.37 2603.45 1369.6 2604.23 1368.83 2605.31 1367.62 2606.69 1365.98 2608.07 1364.33 2610.07 1361.86 2612.69 1358.56 2612.28 1356.42 2611.86 1354.37 2611.43 1352.4 2611 1350.43 2610.55 1348.59 2610.09 1346.89 2609.63 1345.18 2609.26 1344.07 2608.96 1343.54 2608.66 1343.02 2608.34 1342.65 2608.01 1342.45 2607.67 1342.25 2607.24 1342.15 2606.73 1342.15 2606.16 1342.15 2605.65 1342.27 2605.19 1342.53 2604.73 1342.79 2604.23 1343.23 2603.69 1343.87 2603.15 1344.5 2602.43 1345.5 2601.54 1346.85L2598.91 1345.1C2600.61 1342.54 2602.24 1340.62 2603.81 1339.35 2605.38 1338.08 2607.23 1337.44 2609.36 1337.44Z" fill-rule="evenodd"/><text fill="#000000" fill-opacity="0" font-family="Arial,Arial_MSFontService,sans-serif" font-size="40.0815" x="2594.57" y="1372.52">𝑥</text><path d="M0 0 546.667 740.022" stroke="#4472C4" stroke-width="2.29167" stroke-miterlimit="8" fill="none" fill-rule="evenodd" transform="matrix(1 0 0 -1 1883 1307.02)"/><path d="M1928.99 1127.43C1924.21 1127.68 1920.07 1129.74 1916.57 1133.64 1913.07 1137.53 1911.32 1142.32 1911.32 1148.02 1911.32 1151.54 1912.25 1154.48 1914.12 1156.86 1915.98 1159.24 1918.48 1160.57 1921.62 1160.87ZM1935.4 1127.35 1928.02 1160.83C1931.32 1160.69 1934.31 1159.71 1937.02 1157.87 1939.72 1156.03 1941.84 1153.55 1943.38 1150.41 1944.92 1147.28 1945.69 1143.88 1945.69 1140.2 1945.69 1138.04 1945.31 1136.03 1944.55 1134.16 1943.8 1132.3 1942.63 1130.75 1941.05 1129.52 1939.47 1128.29 1937.58 1127.57 1935.4 1127.35ZM1933.53 1106.73 1939.93 1106.73 1936.12 1124.11C1941.58 1124.52 1945.74 1126.11 1948.59 1128.89 1951.44 1131.68 1952.86 1135.45 1952.86 1140.2 1952.86 1143.79 1952.23 1147.06 1950.96 1149.99 1949.69 1152.92 1947.82 1155.49 1945.37 1157.69 1942.91 1159.89 1940.28 1161.51 1937.48 1162.55 1934.69 1163.59 1931.28 1164.11 1927.25 1164.11L1923.56 1180.97 1917.16 1180.97 1920.85 1164.11C1915.5 1163.71 1911.38 1162.11 1908.51 1159.31 1905.63 1156.51 1904.19 1152.72 1904.19 1147.94 1904.19 1143.86 1905.25 1140.01 1907.37 1136.37 1909.49 1132.74 1912.44 1129.81 1916.21 1127.58 1919.97 1125.35 1924.49 1124.19 1929.76 1124.11Z" fill-rule="evenodd"/><text fill="#000000" fill-opacity="0" font-family="Arial,Arial_MSFontService,sans-serif" font-size="74.2461" x="1904.19" y="1171.69">𝜙</text><path d="M1883.5 1207C1910.29 1207 1932 1221.77 1932 1240" stroke="#000000" stroke-width="2.29167" stroke-miterlimit="8" fill="none" fill-rule="evenodd"/><path d="M1883 903 2179.67 903" stroke="#4472C4" stroke-width="2.29167" stroke-miterlimit="8" stroke-dasharray="9.16667 6.875" fill="none" fill-rule="evenodd"/><path d="M2180 900 2180 1306.67" stroke="#4472C4" stroke-width="2.29167" stroke-miterlimit="8" stroke-dasharray="9.16667 6.875" fill="none" fill-rule="evenodd"/></g></svg>